<?xml version="1.0" encoding="utf-8"?>
<!-- Generator: Adobe Illustrator 16.0.0, SVG Export Plug-In . SVG Version: 6.00 Build 0)  -->
<!DOCTYPE svg PUBLIC "-//W3C//DTD SVG 1.1//EN" "http://www.w3.org/Graphics/SVG/1.1/DTD/svg11.dtd">
<svg version="1.1" id="Layer_1" xmlns="http://www.w3.org/2000/svg" xmlns:xlink="http://www.w3.org/1999/xlink" x="0px" y="0px"
	 width="644.323px" height="157.302px" viewBox="23.247 -33.978 644.323 157.302"
	 enable-background="new 23.247 -33.978 644.323 157.302" xml:space="preserve">
<g>
	<path fill="#9C9CFF" d="M183.763,9.019c-9.13,3.756-13.062,12.212-13.062,21.627c0,8.989,1.569,14.409,3.565,19.118l-8.99,2.14
		c-1.996-4.421-4.279-11.983-4.279-22.971c0-21.257,13.982-33.955,34.814-33.955c20.831,0,37.238,12.27,37.238,32.388
		c0,22.543-19.832,28.536-32.53,28.536c-2.567,0-4.565-0.286-5.849-0.428V16.158c0,0-4.959,0.63-7.801-1.916
		C184.65,12.257,184.301,8.795,183.763,9.019z M203.66,43.774c7.989,0.143,20.404-3.283,20.404-17.409
		c0-12.696-11.701-18.262-20.404-19.261V43.774z"/>
</g>
<g>
	<path fill="#9B9B9B" d="M146.986,18.708l37.336,27.541c3.406,2.643,6.419,5.156,9.824,7.928h0.265V16.322h9.298v51.305
		l-7.205-0.123l-36.81-27.165c-3.536-2.516-6.681-5.029-9.955-7.796h-0.262v35.593h-9.171V18.708H146.986z"/>
</g>
<g>
	<path fill="#9B9B9B" d="M254.142,68.905v-48.36h16.801l10.086,32.988L291,20.545h16.834v48.36h-10.427V30.837l-11.035,38.068
		h-10.805l-10.996-38.068v38.068H254.142z"/>
	<path fill="#9B9B9B" d="M357.808,68.905v-48.36h41.216v8.182h-29.992v10.721h27.906v8.148h-27.906v13.16h31.056v8.149H357.808z"/>
	<path fill="#9B9B9B" d="M443.617,68.905v-8.809l29.194-31.37h-25.899v-8.182h40.688v7.586l-30.447,32.625h31.621v8.149H443.617z"/>
	<path fill="#9B9B9B" d="M534.351,68.905v-48.36h11.221v48.36H534.351z"/>
</g>
<g>
	<path fill="#8ED7ED" d="M184.14,47.036c-9.129,3.761-13.062,12.21-13.062,21.628c0,8.986,1.568,14.412,3.565,19.119l-8.987,2.139
		c-1.998-4.423-4.279-11.982-4.279-22.969c0-21.259,13.982-33.957,34.812-33.957s37.238,12.268,37.238,32.386
		c0,22.543-19.832,28.533-32.529,28.533c-2.569,0-4.568-0.281-5.85-0.426V54.177c0,0-4.957,0.628-7.802-1.916
		C185.028,50.279,184.679,46.813,184.14,47.036z M204.037,81.79c7.99,0.145,20.403-3.279,20.403-17.404
		c0-12.7-11.702-18.264-20.403-19.263V81.79z"/>
</g>
</svg>
