<?xml version="1.0" encoding="utf-8"?>
<!-- Generator: Adobe Illustrator 16.0.0, SVG Export Plug-In . SVG Version: 6.00 Build 0)  -->
<!DOCTYPE svg PUBLIC "-//W3C//DTD SVG 1.1//EN" "http://www.w3.org/Graphics/SVG/1.1/DTD/svg11.dtd">
<svg version="1.1" xmlns="http://www.w3.org/2000/svg" xmlns:xlink="http://www.w3.org/1999/xlink" x="0px" y="0px"
	 width="1338.625px" height="489.427px" viewBox="0 0 1338.625 489.427" enable-background="new 0 0 1338.625 489.427"
	 xml:space="preserve">
<g id="Layer_3" display="none">
	<rect x="26" y="16.309" display="inline" fill-rule="evenodd" clip-rule="evenodd" fill="#726658" width="1270" height="449.118"/>
</g>
<g id="Layer_1">
	
		<linearGradient id="SVGID_1_" gradientUnits="userSpaceOnUse" x1="1305.7354" y1="213.8257" x2="1484.741" y2="213.8257" gradientTransform="matrix(-0.7646 -0.6445 0.6445 -0.7646 1129.9519 1457.8036)">
		<stop  offset="0" style="stop-color:#000000;stop-opacity:0"/>
		<stop  offset="1" style="stop-color:#000000"/>
	</linearGradient>
	<path fill-rule="evenodd" clip-rule="evenodd" fill="url(#SVGID_1_)" d="M100.333,364.842l85.451,97.627
		c0,0,22.2,4.146,40.211,4.834s36.875-1.887,36.875-1.887s26.246-4.194,41.857-9.76c18.719-6.673,41.058-18.681,41.058-18.681
		l-78.064-18.972c0,0-48.94-0.115-68.331-3.453S100.333,364.842,100.333,364.842z"/>
	
		<linearGradient id="SVGID_2_" gradientUnits="userSpaceOnUse" x1="1379.6475" y1="382.9395" x2="1488.7852" y2="378.4225" gradientTransform="matrix(-0.7646 -0.6445 0.6445 -0.7646 1129.9519 1457.8036)">
		<stop  offset="1.395381e-04" style="stop-color:#000000;stop-opacity:0"/>
		<stop  offset="1" style="stop-color:#000000"/>
	</linearGradient>
	<path fill-rule="evenodd" clip-rule="evenodd" fill="url(#SVGID_2_)" d="M313.224,215.591c2.189-2.314,14.728-14.115,14.728-14.115
		s2.954-5.842,4.349-14.696c4.17-17.823-3.453-23.875-4.382-25.694c-1.306-0.228-0.125-4.811,1.389-16.279
		c1.36-27.345-6.782-51.667-6.782-51.667l140.579,135.73l-47.897,45.625L266.517,416.131c0,0,113.654-51.305,123.575-67.934
		c0.706-11.28-6.581-17.561-13.867-24.26c-16.867-7.113-38.797-15.755-47.303-19.462c-23.898-10.414-22.78-18.693-22.78-18.693
		s3.701-16.258,2.545-28.085c-0.452-7.307-3.031-14.698-1.883-23.992C307.398,228.567,310.996,220.896,313.224,215.591z"/>
	<circle display="none" fill="#A6C0E4" cx="233.145" cy="240.869" r="224.559"/>
	<path fill-rule="evenodd" clip-rule="evenodd" stroke="#000000" stroke-width="0.25" stroke-miterlimit="10" d="M160.561,71.445
		c8.292-5.623,15.719-11.18,23.636-15.917c17.176-10.278,35.702-16.191,55.955-16.005c21.155,0.193,40.22,7.07,56.291,20.277
		c12.539,10.305,2.489,2.875,14.09,14.321c2.837,2.8,11.002,12.715,13.888,19.84c1.476,3.645,3.418,11.729,3.769,15.238
		c1.067,10.707,1.335,21.523,1.311,32.296c-0.012,5.099-1.477,10.186-2.109,15.3c-0.174,1.412-0.245,3.319,0.528,4.29
		c8.42,10.578,5.362,21.992,2.617,33.364c-0.582,2.409-1.806,4.656-2.583,7.027c-0.327,0.996-14.421,13.338-14.582,13.747
		c-2.173,5.538-4.987,10.946-6.233,16.69c-1.021,4.709-0.984,10,0.019,14.728c2.585,12.185,2.122,24.181-0.663,36.151
		c-1.042,4.479,0.194,7.152,3.825,10.152c14.771,12.199,32.945,17.119,50.066,24.308c4.145,1.74,8.347,3.343,12.531,4.989
		c9.233,3.631,17.74,16.221,17.176,25.957c-0.09,1.551-1.582,3.184-2.755,4.48c-28.397,31.381-63.356,51.67-104.647,60.57
		c-47.548,10.248-93.243,4.654-137.141-16.773c-24.604-12.01-44.279-29.848-62.82-49.371c-2.3-2.421-2.126-4.609-1.665-7.625
		c1.619-10.582,7.039-16.646,17.657-19.806c13.045-3.883,25.944-8.803,38.139-14.826c9.903-4.892,18.736-11.986,27.847-18.383
		c0.882-0.619,0.826-3.322,0.446-4.872c-3.333-13.622-3.852-27.278-1.365-41.105c1.147-6.377,3.675-11.138,9.747-14.524
		c20.327-11.338,41.632-18.721,65.202-17.275c22.33,1.368,42.339,9.623,61.82,22.344c2.667-6.751,5.008-13.121,7.75-19.314
		c0.712-1.609,2.602-2.753,4.077-3.956c2.154-1.758,5.065-2.944,6.535-5.126c7.759-11.525,10.805-24.275,8.063-38.016
		c-0.589-2.949-2.765-5.581-4.21-8.359c-0.514,0.156-1.029,0.311-1.543,0.467c-1.018,3.79-2.347,7.529-2.971,11.383
		c-0.742,4.579-3.087,6.417-7.633,6.636c-1.592,0.077-4.252,1.727-4.473,2.996c-3.694,21.315-19.966,24.767-36.881,22.517
		c-16.071-2.138-24.452-12.875-29.201-27.298c-1.273-3.865-1.451-9.026-6.892-9.089c-5.444-0.063-5.883,5.041-7.068,8.936
		c-7.401,24.328-25.651,31.615-48.323,26.504c-9.954-2.244-15.24-9.666-16.994-19.495c-0.645-3.615-1.992-5.683-6.048-5.356
		c-4.134,0.333-5.877-1.874-7-5.91c-4.396-15.803-7.95-31.766-6.83-48.21c0.556-8.173,3.228-16.188,4.629-24.328
		C145.883,94.042,151,84.63,151,84.63 M158.705,149.336c4.193-0.527,7.477-1.038,10.78-1.339c15.099-1.378,30.163-2.811,45.098,1.68
		c12.417,3.734,25.021,3.604,37.436-0.062c11.581-3.419,23.298-3.471,35.136-2.396c6.544,0.595,13.086,1.203,19.897,1.829
		c0.871-12.943,0.787-25.219-5.681-36.816c-1.366,0.622-2.267,1.008-3.147,1.436c-15.658,7.603-32.188,11.575-49.587,11.994
		c-26.445,0.637-51.038-6.486-74.446-18.132c-3.964-1.972-6.038-1.167-8.173,2.043C157.971,121.667,157.574,135.077,158.705,149.336
		z M179.718,310.709c-0.13,1.329-0.237,1.653-0.18,1.944c5.591,28.533,11.174,57.068,16.805,85.593
		c2.46,12.463,2.516,12.369,16.076,14.271c3.739,0.523,5.437-0.152,5.526-4.412c0.283-13.477,1.069-26.941,1.313-40.418
		c0.039-2.141-1.209-4.812-2.746-6.367c-3.233-3.271-7.053-5.963-11.74-9.801c5.01-4.146,8.294-6.865,12.126-10.036
		C202.278,333.354,189.863,324.052,179.718,310.709z M286.569,311.905c-10.315,12.252-22.964,21.374-37.412,29.802
		c3.858,3.418,7.044,6.241,10.826,9.592c-3.625,3.422-6.645,6.504-9.917,9.291c-2.743,2.334-3.836,4.842-3.562,8.605
		c0.725,9.947,0.99,19.932,1.288,29.906c0.448,14.992,0.374,14.885,15.546,12.145c3.001-0.541,4.093-1.732,4.642-4.602
		c2.807-14.684,5.87-29.318,8.755-43.986C280.061,345.75,283.295,328.824,286.569,311.905z M274.406,150.406
		c-5.868,1.198-13.551,2.372-20.994,4.419c-5.335,1.467-7.899,5.532-7.554,11.406c1.394,23.747,17.658,33.542,38.791,29.885
		c6.719-1.163,11.158-5.477,13.296-12.112c2.464-7.649,2.631-15.306,0.857-23.112c-0.869-3.821-3.025-6.331-6.743-7.164
		C286.896,152.571,281.658,151.75,274.406,150.406z M189.555,150.095c-0.077,0.408-0.153,0.815-0.229,1.223
		c-1.162,0.076-2.326,0.124-3.484,0.233c-17.428,1.646-20.562,4.272-19.341,23.722c0.845,13.458,6.409,19.471,16.526,21.242
		c20.311,3.555,35.993-8.776,37.247-29.288c0.423-6.916-1.321-10.585-7.989-12.549C204.898,152.503,197.147,151.569,189.555,150.095
		z M235.719,258.722c2.632-0.809,8.026-1.655,12.624-4.039c11.937-6.192,12.621-18.486,1.9-26.551
		c-9.581-7.205-28.069-6.355-36.891,1.695c-7.466,6.813-7.081,16.385,0.973,22.84C219.785,257.044,226.263,258.288,235.719,258.722z
		"/>
	<g>
		<path fill-rule="evenodd" clip-rule="evenodd" fill="#FFFFFF" stroke="#000000" stroke-width="0.25" stroke-miterlimit="10" d="
			M179.718,310.709c10.145,13.343,22.56,22.645,37.181,30.775c-3.832,3.171-7.116,5.889-12.126,10.036
			c4.687,3.838,8.506,6.529,11.74,9.801c1.536,1.555,2.784,4.227,2.746,6.367c-0.244,13.477-1.03,26.941-1.313,40.418
			c-0.089,4.26-1.788,4.936-5.526,4.412c-13.56-1.902-13.616-1.809-16.076-14.271c-5.631-28.525-11.214-57.06-16.805-85.593
			C179.48,312.362,179.587,312.038,179.718,310.709z"/>
		<path fill-rule="evenodd" clip-rule="evenodd" fill="#FFFFFF" stroke="#000000" stroke-width="0.25" stroke-miterlimit="10" d="
			M286.569,311.905c-3.274,16.919-6.509,33.845-9.835,50.753c-2.885,14.668-5.948,29.303-8.755,43.986
			c-0.548,2.869-1.641,4.061-4.642,4.602c-15.172,2.74-15.098,2.848-15.546-12.145c-0.298-9.975-0.562-19.959-1.288-29.906
			c-0.274-3.764,0.819-6.271,3.562-8.605c3.272-2.787,6.292-5.869,9.917-9.291c-3.782-3.352-6.968-6.174-10.826-9.592
			C263.605,333.279,276.254,324.157,286.569,311.905z"/>
	</g>
	<g opacity="0.3">
		<path fill-rule="evenodd" clip-rule="evenodd" fill="#FFFFFF" stroke="#000000" stroke-width="0.25" stroke-miterlimit="10" d="
			M274.406,150.406c7.252,1.344,12.491,2.165,17.654,3.322c3.717,0.833,5.874,3.342,6.743,7.164
			c1.774,7.807,1.607,15.463-0.857,23.112c-2.138,6.636-6.577,10.95-13.296,12.112c-21.133,3.657-37.397-6.138-38.791-29.885
			c-0.345-5.874,2.219-9.938,7.554-11.406C260.855,152.778,268.538,151.604,274.406,150.406z"/>
		<path fill-rule="evenodd" clip-rule="evenodd" fill="#FFFFFF" stroke="#000000" stroke-width="0.25" stroke-miterlimit="10" d="
			M189.555,150.095c7.592,1.474,15.344,2.408,22.73,4.583c6.668,1.964,8.412,5.634,7.989,12.549
			c-1.254,20.512-16.937,32.843-37.247,29.288c-10.117-1.771-15.681-7.784-16.526-21.242c-1.221-19.45,1.913-22.076,19.341-23.722
			c1.158-0.109,2.322-0.157,3.484-0.233C189.402,150.91,189.478,150.502,189.555,150.095z"/>
	</g>
	<path fill="#FFFFFF" stroke="#000000" stroke-width="0.25" stroke-miterlimit="10" d="M313.37,215.223"/>
</g>
<g id="Layer_2">
	<g>
		<g>
			<path d="M578.662,371.589l27.465,47.197h15.693c7.149-15.68,13.386-31.853,18.643-48.449V239.302H608.66v119.859l-17.049-29.514
				C588.116,343.951,583.783,357.952,578.662,371.589z"/>
			<path d="M506.211,380.265v38.521h31.804V301.741l39.393,67.694c5.08-13.737,9.367-27.828,12.801-42.213l-50.555-87.514
				c0.019,11.685-0.619,23.49-1.961,35.379C533.428,312.864,522.489,348.263,506.211,380.265z"/>
			<path d="M536.153,274.913c1.35-11.955,1.976-23.838,1.934-35.611h-31.876V376.72
				C521.665,345.546,532.048,311.273,536.153,274.913z"/>
			<path d="M624.282,418.786h16.181v-41.198C635.76,391.657,630.354,405.405,624.282,418.786z"/>
		</g>
		<g>
			<path d="M717.553,318.883l23.648,99.902h11.547c7.44-21.75,13.478-43.834,18.117-66.117c-0.605-0.217-1.197-0.5-1.738-0.912
				c-2.823-2.154-3.365-6.188-1.212-9.01c1.325-1.738,3.364-2.604,5.394-2.516c4.614-25.017,7.481-50.247,8.632-75.498
				l-24.185,97.123L727,239.302h-3.123C723.931,265.591,721.868,292.186,717.553,318.883z"/>
			<path d="M776.053,340.999c0.297,0.158,0.594,0.324,0.871,0.535c2.822,2.153,3.365,6.186,1.212,9.009
				c-1.114,1.46-2.73,2.296-4.421,2.479c-4.585,22.149-10.553,44.114-17.921,65.764h18.267l33.725-141.408v141.408h8.67
				c4.302-14.164,8.129-28.571,11.439-43.216c5.332-23.587,9.2-47.193,11.693-70.723v-65.545h-51.314l-3.226,12.953
				C784.438,281.916,781.459,311.598,776.053,340.999z"/>
			<path d="M707.729,418.786V365.49c-4.773,18.274-10.525,36.054-17.187,53.295H707.729z"/>
			<path d="M830.908,376.251c-3.26,14.418-7.012,28.597-11.215,42.534h19.895v-89.067
				C837.305,345.208,834.418,360.727,830.908,376.251z"/>
			<path d="M707.729,355.286v-77.908l8.306,35.09c3.64-24.509,5.376-48.954,5.31-73.166h-45.418v179.484h11.914
				C695.808,398.334,702.477,377.14,707.729,355.286z"/>
		</g>
		<g>
			<path d="M992.416,309.454h-26.997c-0.259,2.76-0.516,5.52-0.806,8.278c0.41,0.18,0.821,0.369,1.211,0.621
				c3.971,2.569,5.107,7.871,2.537,11.842c-1.328,2.055-3.391,3.331-5.617,3.748c-0.245,1.918-0.514,3.835-0.773,5.753h30.445
				V309.454z"/>
			<path d="M958.119,339.696c0.271-1.976,0.549-3.952,0.804-5.929c-0.827-0.227-1.644-0.542-2.403-1.033
				c-3.972-2.57-5.106-7.873-2.537-11.844c1.582-2.445,4.201-3.805,6.905-3.896c0.266-2.513,0.499-5.026,0.738-7.54h-54.207v-39.789
				h56.909c0.414-10.125,0.632-20.248,0.631-30.363h-57.462c0.087,47.249-4.732,94.605-14.591,141.241
				c0.357,0.203,0.715,0.416,1.047,0.684c3.377,2.72,3.91,7.662,1.189,11.039c-1.407,1.747-3.408,2.715-5.479,2.884
				c-1.855,7.904-3.87,15.783-6.016,23.637h59.184c2.531-10.09,4.842-20.213,6.936-30.363h-42.349v-48.727H958.119z"/>
			<path d="M953.685,388.422c-2.08,10.148-4.379,20.271-6.898,30.363h55.2v-30.363H953.685z"/>
			<path d="M998.891,239.302h-30.266c0.021,10.114-0.179,20.237-0.574,30.363h30.84V239.302z"/>
			<path d="M886.196,394.626c-0.733-0.285-1.446-0.65-2.093-1.17c-3.379-2.722-3.91-7.664-1.19-11.042
				c1.675-2.079,4.191-3.071,6.666-2.897c9.809-46.282,14.679-93.301,14.724-140.215h-30.94v179.484h6.647
				C882.219,410.76,884.289,402.708,886.196,394.626z"/>
		</g>
		<g>
			<path d="M1082.667,322.023c0.83-8.59,1.516-17.185,2.086-25.781l-68.312,89.416c-0.081,0.435-0.161,0.87-0.242,1.305v31.823h51.5
				c2.157-10.1,4.142-20.222,5.928-30.363h-16.183l20.44-26.707c0.963-6.699,1.861-13.402,2.665-20.111
				c-0.968-0.255-1.922-0.614-2.814-1.181c-4.658-2.956-6.036-9.127-3.08-13.785
				C1076.474,323.772,1079.514,322.158,1082.667,322.023z"/>
			<path d="M1134.854,391.826c0.191-1.134,0.367-2.269,0.554-3.403h-57.239c-1.773,10.14-3.748,20.261-5.895,30.363h57.603
				c0.411-2.065,0.837-4.128,1.233-6.194c-1.016-0.346-2.008-0.803-2.918-1.475c-4.755-3.512-5.762-10.209-2.25-14.964
				C1128.102,393.226,1131.473,391.732,1134.854,391.826z"/>
			<path d="M1029.761,243.092c0.462,0.148,0.927,0.307,1.374,0.535c4.562,2.333,6.369,7.921,4.037,12.482
				c-1.207,2.359-3.288,3.961-5.643,4.656c-0.074,2.965-0.177,5.932-0.285,8.898h56.854c0.358-10.125,0.551-20.248,0.554-30.363
				h-56.898C1029.757,240.565,1029.765,241.829,1029.761,243.092z"/>
			<path d="M1090.941,239.302c0.017,10.115-0.157,20.237-0.498,30.363h14.614l-15.533,20.332
				c-0.628,10.952-1.454,21.903-2.506,32.848c0.481,0.207,0.963,0.424,1.421,0.714c4.657,2.956,6.037,9.126,3.081,13.784
				c-1.529,2.41-3.921,3.92-6.514,4.43c-0.504,4.251-1.047,8.5-1.615,12.749l63.706-83.234c0.382-10.663,0.586-21.326,0.6-31.984
				H1090.941z"/>
			<path d="M1140.188,388.422c-0.25,1.537-0.489,3.074-0.747,4.61c0.499,0.257,0.997,0.524,1.464,0.869
				c4.754,3.511,5.762,10.209,2.25,14.963c-1.815,2.459-4.484,3.893-7.294,4.241c-0.361,1.895-0.751,3.786-1.124,5.68h18.948
				v-30.363H1140.188z"/>
		</g>
		<g>
			<path d="M1193.526,409.458c-1.088-0.352-2.153-0.822-3.136-1.524c-5.127-3.669-6.309-10.796-2.641-15.923
				c2.258-3.156,5.828-4.804,9.434-4.758c6.51-42.554,10.193-85.367,11.104-128.142v-19.809h-34.057v179.484h17.584
				C1192.395,415.677,1192.978,412.569,1193.526,409.458z"/>
			<path d="M1206.313,405.29c-1.897,2.652-4.722,4.225-7.712,4.641c-0.518,2.954-1.069,5.904-1.614,8.855h11.301v-18.319
				C1208.018,402.153,1207.375,403.806,1206.313,405.29z"/>
			<path d="M1208.288,396.775V339.59c-1.653,16.317-3.714,32.614-6.192,48.875c0.536,0.266,1.072,0.544,1.576,0.904
				C1206.232,391.202,1207.809,393.897,1208.288,396.775z"/>
		</g>
		<g>
			<path d="M585.866,139.912c-2.961-10.278-6.361-20.363-10.165-30.241h-38.985v-39.79h20.879
				c-2.417-4.569-4.924-9.082-7.522-13.533c-0.398,0.164-0.818,0.288-1.271,0.325c-2.362,0.195-4.436-1.562-4.63-3.925
				c-0.12-1.454,0.504-2.795,1.549-3.658c-1.984-3.226-4.022-6.414-6.101-9.572h-36.959v54.551
				c6.745,12.472,12.651,25.435,17.645,38.81c0.188-0.009,0.376-0.015,0.569,0.008c1.964,0.222,3.377,1.993,3.155,3.958
				c-0.115,1.016-0.648,1.877-1.404,2.448c8.83,25.357,14.399,52.115,16.296,79.708h60.596c-0.152-2.45-0.315-4.902-0.518-7.359
				c-0.638-7.743-1.522-15.411-2.629-23.004h-59.656v-48.727H585.866z"/>
			<path d="M616.153,46.062c0.259-0.042,0.521-0.079,0.792-0.079c2.763,0,5.003,2.24,5.003,5.003c0,1.429-0.606,2.71-1.566,3.622
				c2.417,5.037,4.735,10.13,6.96,15.273h0.845V39.518H612.76C613.909,41.688,615.041,43.87,616.153,46.062z"/>
			<path d="M621.713,109.671h-43.954c3.774,9.872,7.139,19.959,10.077,30.241h33.876V109.671z"/>
			<path d="M521.164,139.939c-0.352,0.07-0.716,0.104-1.092,0.062c-1.964-0.222-3.376-1.994-3.155-3.959
				c0.137-1.209,0.863-2.206,1.858-2.744c-4.61-12.368-10.005-24.388-16.114-35.999v121.703h34.679
				C535.432,191.688,529.905,165.138,521.164,139.939z"/>
			<path d="M600.853,211.49c0.207,2.508,0.374,5.011,0.528,7.511h29.904v-30.363h-33.029
				C599.345,196.178,600.219,203.795,600.853,211.49z"/>
			<path d="M618.453,55.734c-0.478,0.152-0.978,0.256-1.507,0.256c-2.764,0-5.003-2.24-5.003-5.004c0-1.702,0.853-3.2,2.15-4.104
				c-1.252-2.47-2.534-4.922-3.832-7.365h-68.394c1.888,2.882,3.748,5.786,5.558,8.725c0.219-0.053,0.439-0.104,0.672-0.124
				c2.361-0.194,4.434,1.562,4.629,3.924c0.101,1.222-0.327,2.359-1.084,3.207c2.813,4.805,5.516,9.685,8.117,14.63h65.147
				C622.837,65.122,620.687,60.404,618.453,55.734z"/>
		</g>
		<g>
			<path d="M655.488,69.881h35.133c-3.808-10.267-7.951-20.394-12.42-30.363h-22.713V69.881z"/>
			<path d="M710.839,128.083c1.779,7.547,3.374,15.152,4.797,22.803l46.504-60.758c-4.771-17.109-10.369-34.002-16.793-50.611
				h-64.546c4.474,9.969,8.625,20.094,12.435,30.363h41.121l-28.833,37.74c0.926,3.287,1.83,6.582,2.688,9.892
				c0.299,0.017,0.602,0.039,0.903,0.105c3.083,0.677,5.035,3.723,4.358,6.807C713.125,126.02,712.134,127.3,710.839,128.083z"/>
			<path d="M720.869,219.001c-0.451-10.176-1.219-20.301-2.296-30.363h-31.831l26.804-35.02c-1.502-8.309-3.215-16.562-5.136-24.752
				c-0.571,0.053-1.154,0.047-1.745-0.082c-3.083-0.677-5.034-3.726-4.357-6.809c0.417-1.898,1.735-3.361,3.404-4.052
				c-0.676-2.611-1.374-5.215-2.092-7.812l-46.629,61.033c2.552,15.683,4.244,31.653,5.054,47.855H720.869z"/>
			<path d="M655.14,173.569l-9.644,12.623v32.81h14.376C659.094,203.645,657.503,188.486,655.14,173.569z"/>
			<path d="M763.784,87.98l15.54-20.303V39.518h-31.825C753.68,55.44,759.112,71.613,763.784,87.98z"/>
			<path d="M782.984,191.507v-2.869h-0.269C782.806,189.595,782.899,190.551,782.984,191.507z"/>
			<path d="M780.201,188.639h-59.055c1.069,10.058,1.827,20.183,2.271,30.363h58.725
				C781.771,208.86,781.124,198.735,780.201,188.639z"/>
		</g>
		<g>
			<path d="M904.021,219.001c-0.292-10.135-0.82-20.258-1.563-30.363h-58.461c0.853,10.074,1.451,20.198,1.803,30.363H904.021z"/>
			<path d="M923.709,109.671h-28.915c1.968,10.042,3.711,20.125,5.224,30.241h23.691V109.671z"/>
			<path d="M838.713,109.671v-39.79h44.318c-2.614-10.182-5.479-20.304-8.571-30.363h-62.171
				c5.805,16.726,10.905,33.732,15.262,50.979c0.373,0.023,0.748,0.054,1.127,0.14c3.846,0.869,6.26,4.69,5.39,8.537
				c-0.45,1.989-1.696,3.581-3.319,4.548c3.123,13.633,5.774,27.41,7.965,41.303v-5.113h58.399
				c-1.484-10.118-3.208-20.199-5.148-30.241H838.713z"/>
			<path d="M930.184,39.518h-53.06c3.112,10.06,5.985,20.184,8.623,30.363h44.437V39.518z"/>
			<path d="M840.787,188.639h-2.074v-20.258c-2.558-21.499-6.235-42.761-11.005-63.699c-0.714,0.062-1.442,0.049-2.179-0.117
				c-3.848-0.87-6.26-4.692-5.39-8.539c0.535-2.368,2.193-4.186,4.284-5.034c-4.388-17.413-9.539-34.584-15.399-51.474h-4.37
				v179.483h37.958C842.254,208.84,841.646,198.716,840.787,188.639z"/>
			<path d="M905.508,188.639c0.773,10.105,1.33,20.229,1.651,30.363h26.119v-30.363H905.508z"/>
		</g>
	</g>
</g>
</svg>
