<?xml version="1.0" encoding="utf-8"?>
<!-- Generator: Adobe Illustrator 16.0.0, SVG Export Plug-In . SVG Version: 6.00 Build 0)  -->
<!DOCTYPE svg PUBLIC "-//W3C//DTD SVG 1.1//EN" "http://www.w3.org/Graphics/SVG/1.1/DTD/svg11.dtd">
<svg version="1.1" id="Layer_1" xmlns="http://www.w3.org/2000/svg" xmlns:xlink="http://www.w3.org/1999/xlink" x="0px" y="0px"
	 width="406.178px" height="116.315px" viewBox="0 0 406.178 116.315" enable-background="new 0 0 406.178 116.315"
	 xml:space="preserve">
<g>
	<path fill="#FFFFFF" d="M90.023,45.226l8.836,14.131h0.101V45.226h16.97V87.84h-12.853l-8.134-13.161h-0.101v12.829H77.898V45.226
		H90.023z"/>
	<path fill="#686969" d="M165.435,45.226l6.928,8.811l6.954-8.811h16.443v42.282h-16.97V66.339l-6.427,8.174l-6.426-8.174v21.169
		h-16.97V45.226H165.435z"/>
	<path fill="#686969" d="M260.679,45.226v10.612h-14.861v5.236h10.343v10.612h-10.343v5.209h14.861v10.612h-31.806V45.226H260.679z"
		/>
	<path fill="#686969" d="M329.739,45.226l-17.623,31.67h16.744v10.612h-40.342l17.623-31.67H289.95V45.226H329.739z"/>
	<path fill="#686969" d="M376.634,45.226v42.282h-16.945V45.226H376.634z"/>
</g>
<rect x="78.545" y="28.213" fill="#4FF900" width="31.834" height="62.803"/>
<g>
	<path fill="#99DBFF" stroke="#231F20" stroke-width="0.25" stroke-miterlimit="10" d="M115.375,49.743h-11.889V31.366h-5.867v12.79
		H85.729v-12.79h-5.836v18.377H68.004V10.412h47.371V49.743z"/>
	<path fill="#686969" d="M115.376,93.625L79.895,71.834V92.54H68.005V42.654l35.481,21.792V44.423h11.889V93.625z"/>
	<path d="M153.615,107.791h-31.084l-10.824-5.7h-9.956l3.792,3.967H77.755l3.82-3.967h-9.902l-10.823,5.7H29.766l38.239-19.731
		h47.371L153.615,107.791z"/>
</g>
<ellipse fill="#FF0000" cx="101.258" cy="55.489" rx="0.863" ry="0.7"/>
</svg>
