<?xml version="1.0" encoding="utf-8"?>
<!-- Generator: Adobe Illustrator 16.0.0, SVG Export Plug-In . SVG Version: 6.00 Build 0)  -->
<!DOCTYPE svg PUBLIC "-//W3C//DTD SVG 1.1//EN" "http://www.w3.org/Graphics/SVG/1.1/DTD/svg11.dtd">
<svg version="1.1" id="Layer_1" xmlns="http://www.w3.org/2000/svg" xmlns:xlink="http://www.w3.org/1999/xlink" x="0px" y="0px"
	 width="308.5px" height="122px" viewBox="464.312 182.713 308.5 122" enable-background="new 464.312 182.713 308.5 122"
	 xml:space="preserve">
<g id="Layer_3" display="none">
	<rect x="26" y="16.309" display="inline" fill="#726658" width="1270" height="449.117"/>
</g>
<g id="Layer_1_1_">
	
		<linearGradient id="SVGID_1_" gradientUnits="userSpaceOnUse" x1="1911.8447" y1="49.4233" x2="1958.9098" y2="49.4233" gradientTransform="matrix(-0.7646 -0.6445 -0.6445 0.7646 2012.943 1491.7122)">
		<stop  offset="0" style="stop-color:#000000;stop-opacity:0"/>
		<stop  offset="1" style="stop-color:#000000"/>
	</linearGradient>
	<path fill="url(#SVGID_1_)" d="M474.841,274.2l22.468,25.668c0,0,5.837,1.092,10.572,1.271c4.736,0.18,9.696-0.496,9.696-0.496
		s6.9-1.104,11.005-2.566c4.922-1.754,10.795-4.912,10.795-4.912l-20.525-4.988c0,0-12.868-0.031-17.966-0.908
		C495.787,286.391,474.841,274.2,474.841,274.2z"/>
	
		<linearGradient id="SVGID_2_" gradientUnits="userSpaceOnUse" x1="1931.2783" y1="4.958" x2="1959.9735" y2="6.1457" gradientTransform="matrix(-0.7646 -0.6445 -0.6445 0.7646 2012.943 1491.7122)">
		<stop  offset="1.395381e-04" style="stop-color:#000000;stop-opacity:0"/>
		<stop  offset="1" style="stop-color:#000000"/>
	</linearGradient>
	<path fill="url(#SVGID_2_)" d="M530.816,234.957c0.575-0.609,3.872-3.712,3.872-3.712s0.777-1.536,1.144-3.864
		c1.097-4.686-0.908-6.277-1.152-6.755c-0.344-0.061-0.032-1.266,0.365-4.28c0.357-7.189-1.783-13.585-1.783-13.585l36.963,35.688
		l-12.594,11.996l-39.095,37.24c0,0,29.883-13.488,32.491-17.861c0.186-2.967-1.731-4.617-3.646-6.379
		c-4.435-1.871-10.201-4.143-12.438-5.117c-6.283-2.738-5.989-4.914-5.989-4.914s0.973-4.275,0.669-7.385
		c-0.118-1.921-0.797-3.865-0.495-6.308C529.284,238.368,530.23,236.352,530.816,234.957z"/>
	<circle display="none" fill="#A6C0E4" cx="509.761" cy="241.603" r="59.044"/>
	<path stroke="#000000" stroke-width="0.25" stroke-miterlimit="10" d="M490.677,197.057c2.18-1.479,4.133-2.939,6.214-4.186
		c4.517-2.702,9.388-4.257,14.713-4.208c5.562,0.051,10.574,1.859,14.8,5.331c3.297,2.71,0.654,0.756,3.705,3.766
		c0.746,0.736,2.893,3.344,3.651,5.217c0.389,0.959,0.898,3.084,0.991,4.007c0.28,2.815,0.351,5.658,0.345,8.491
		c-0.003,1.341-0.389,2.678-0.555,4.022c-0.046,0.372-0.064,0.873,0.139,1.128c2.214,2.781,1.41,5.783,0.688,8.772
		c-0.153,0.634-0.475,1.225-0.68,1.848c-0.086,0.262-3.791,3.507-3.834,3.615c-0.571,1.456-1.312,2.878-1.639,4.388
		c-0.268,1.238-0.258,2.63,0.005,3.873c0.68,3.204,0.559,6.356-0.174,9.504c-0.274,1.178,0.051,1.881,1.005,2.67
		c3.885,3.207,8.663,4.5,13.165,6.391c1.09,0.459,2.194,0.879,3.294,1.312c2.428,0.955,4.664,4.264,4.517,6.824
		c-0.024,0.408-0.416,0.838-0.725,1.18c-7.467,8.25-16.658,13.584-27.515,15.924c-12.502,2.693-24.517,1.225-36.059-4.41
		c-6.469-3.158-11.642-7.848-16.518-12.98c-0.604-0.637-0.559-1.213-0.438-2.006c0.426-2.781,1.851-4.375,4.643-5.207
		c3.43-1.021,6.821-2.314,10.027-3.898c2.604-1.285,4.927-3.152,7.322-4.834c0.231-0.162,0.218-0.873,0.117-1.279
		c-0.876-3.582-1.013-7.172-0.358-10.808c0.302-1.677,0.966-2.929,2.562-3.819c5.345-2.981,10.946-4.922,17.144-4.542
		c5.871,0.359,11.132,2.53,16.254,5.875c0.702-1.775,1.317-3.449,2.038-5.078c0.188-0.424,0.685-0.725,1.071-1.04
		c0.566-0.463,1.333-0.774,1.719-1.348c2.04-3.03,2.841-6.383,2.12-9.996c-0.155-0.775-0.727-1.468-1.106-2.197
		c-0.136,0.04-0.271,0.082-0.406,0.122c-0.268,0.997-0.617,1.98-0.781,2.993c-0.194,1.204-0.812,1.688-2.007,1.745
		c-0.418,0.02-1.118,0.454-1.176,0.788c-0.972,5.604-5.25,6.512-9.697,5.92c-4.226-0.562-6.429-3.386-7.678-7.178
		c-0.335-1.017-0.382-2.373-1.812-2.39s-1.547,1.326-1.858,2.35c-1.946,6.396-6.744,8.312-12.705,6.969
		c-2.617-0.59-4.007-2.541-4.468-5.126c-0.171-0.95-0.524-1.494-1.591-1.408c-1.087,0.087-1.545-0.493-1.84-1.554
		c-1.156-4.155-2.091-8.353-1.796-12.676c0.146-2.149,0.849-4.257,1.217-6.396c0.089-0.519,1.434-2.993,1.434-2.993
		 M490.188,217.536c1.103-0.139,1.966-0.272,2.834-0.352c3.971-0.362,7.932-0.739,11.857,0.441c3.266,0.981,6.579,0.947,9.844-0.017
		c3.045-0.899,6.126-0.912,9.238-0.63c1.721,0.156,3.44,0.316,5.231,0.481c0.229-3.403,0.207-6.632-1.494-9.681
		c-0.359,0.164-0.596,0.265-0.827,0.378c-4.117,1.999-8.463,3.043-13.038,3.153c-6.953,0.167-13.419-1.705-19.574-4.768
		c-1.042-0.519-1.588-0.307-2.148,0.537C489.995,210.262,489.892,213.787,490.188,217.536z M495.713,259.965
		c-0.033,0.35-0.062,0.436-0.047,0.512c1.47,7.502,2.938,15.004,4.418,22.504c0.647,3.277,0.662,3.254,4.228,3.754
		c0.982,0.137,1.43-0.041,1.453-1.16c0.074-3.545,0.28-7.084,0.345-10.627c0.011-0.564-0.317-1.266-0.722-1.674
		c-0.851-0.861-1.854-1.568-3.087-2.578c1.317-1.09,2.181-1.805,3.188-2.639C501.645,265.92,498.381,263.475,495.713,259.965z
		 M523.808,260.28c-2.713,3.221-6.038,5.621-9.837,7.836c1.015,0.898,1.853,1.641,2.847,2.523c-0.953,0.898-1.747,1.709-2.607,2.441
		c-0.721,0.615-1.009,1.273-0.937,2.264c0.19,2.613,0.26,5.24,0.339,7.863c0.118,3.941,0.098,3.914,4.087,3.193
		c0.789-0.143,1.076-0.455,1.221-1.211c0.738-3.859,1.544-7.709,2.302-11.564C522.097,269.178,522.946,264.729,523.808,260.28z
		 M520.609,217.817c-1.542,0.315-3.562,0.624-5.52,1.162c-1.402,0.386-2.077,1.454-1.986,2.999
		c0.366,6.243,4.643,8.819,10.199,7.857c1.767-0.306,2.934-1.439,3.495-3.185c0.648-2.012,0.692-4.024,0.226-6.077
		c-0.228-1.005-0.795-1.664-1.771-1.884C523.894,218.387,522.517,218.171,520.609,217.817z M498.3,217.735
		c-0.021,0.107-0.04,0.215-0.06,0.322c-0.306,0.02-0.612,0.032-0.916,0.062c-4.583,0.433-5.407,1.123-5.086,6.237
		c0.223,3.538,1.685,5.119,4.345,5.585c5.341,0.934,9.464-2.308,9.793-7.701c0.111-1.818-0.347-2.783-2.1-3.299
		C502.334,218.369,500.296,218.123,498.3,217.735z M510.438,246.297c0.692-0.213,2.11-0.436,3.319-1.062
		c3.139-1.628,3.318-4.861,0.5-6.981c-2.52-1.895-7.381-1.671-9.7,0.445c-1.963,1.792-1.862,4.309,0.256,6.005
		C506.248,245.856,507.952,246.182,510.438,246.297z"/>
	<g>
		<path fill="#FFFFFF" stroke="#000000" stroke-width="0.25" stroke-miterlimit="10" d="M495.713,259.965
			c2.668,3.51,5.932,5.955,9.776,8.092c-1.008,0.834-1.871,1.549-3.188,2.639c1.232,1.01,2.236,1.717,3.087,2.578
			c0.404,0.408,0.732,1.111,0.722,1.674c-0.063,3.543-0.271,7.084-0.345,10.627c-0.023,1.119-0.471,1.297-1.453,1.16
			c-3.565-0.5-3.58-0.477-4.227-3.754c-1.48-7.5-2.949-15.002-4.419-22.504C495.65,260.401,495.679,260.315,495.713,259.965z"/>
		<path fill="#FFFFFF" stroke="#000000" stroke-width="0.25" stroke-miterlimit="10" d="M523.808,260.28
			c-0.861,4.449-1.711,8.898-2.586,13.346c-0.758,3.855-1.563,7.705-2.302,11.564c-0.145,0.756-0.432,1.068-1.221,1.211
			c-3.989,0.721-3.97,0.748-4.088-3.193c-0.078-2.623-0.147-5.25-0.339-7.863c-0.071-0.99,0.216-1.648,0.938-2.264
			c0.86-0.732,1.654-1.543,2.607-2.441c-0.995-0.883-1.833-1.625-2.847-2.523C517.77,265.901,521.095,263.5,523.808,260.28z"/>
	</g>
	<g opacity="0.3">
		<path fill="#FFFFFF" stroke="#000000" stroke-width="0.25" stroke-miterlimit="10" d="M520.609,217.817
			c1.907,0.354,3.284,0.569,4.643,0.873c0.977,0.22,1.544,0.879,1.772,1.884c0.466,2.054,0.423,4.065-0.226,6.077
			c-0.562,1.745-1.729,2.879-3.496,3.185c-5.557,0.962-9.833-1.614-10.199-7.857c-0.091-1.545,0.584-2.613,1.986-2.999
			C517.047,218.441,519.067,218.133,520.609,217.817z"/>
		<path fill="#FFFFFF" stroke="#000000" stroke-width="0.25" stroke-miterlimit="10" d="M498.3,217.735
			c1.996,0.388,4.034,0.634,5.977,1.206c1.753,0.516,2.211,1.48,2.1,3.299c-0.329,5.393-4.452,8.635-9.793,7.701
			c-2.66-0.466-4.122-2.047-4.345-5.585c-0.321-5.114,0.503-5.805,5.086-6.237c0.304-0.029,0.61-0.042,0.916-0.062
			C498.26,217.95,498.279,217.843,498.3,217.735z"/>
	</g>
	<path fill="#FFFFFF" stroke="#000000" stroke-width="0.25" stroke-miterlimit="10" d="M530.854,234.86"/>
</g>
<g id="Layer_2">
	<g>
		<g>
			<path d="M600.607,275.973l7.222,12.408h4.126c1.88-4.121,3.52-8.373,4.901-12.736v-34.454h-8.361v31.514l-4.483-7.76
				C603.094,268.708,601.954,272.387,600.607,275.973z"/>
			<path d="M581.559,278.254v10.127h8.361v-30.773l10.358,17.799c1.335-3.611,2.463-7.316,3.365-11.1l-13.292-23.009
				c0.005,3.072-0.163,6.175-0.516,9.302C588.714,260.534,585.838,269.84,581.559,278.254z"/>
			<path d="M589.431,250.553c0.355-3.143,0.52-6.267,0.509-9.362h-8.381v36.131C585.621,269.125,588.351,260.114,589.431,250.553z"
				/>
			<path d="M612.603,288.381h4.254v-10.83C615.62,281.25,614.199,284.864,612.603,288.381z"/>
		</g>
		<g>
			<path d="M637.126,262.116l6.218,26.266h3.036c1.956-5.717,3.544-11.523,4.764-17.383c-0.159-0.057-0.315-0.131-0.457-0.24
				c-0.742-0.566-0.885-1.627-0.318-2.369c0.349-0.457,0.884-0.686,1.418-0.662c1.213-6.578,1.967-13.211,2.27-19.85l-6.358,25.537
				l-8.088-32.223h-0.82C638.803,248.104,638.261,255.096,637.126,262.116z"/>
			<path d="M652.508,267.93c0.077,0.041,0.155,0.086,0.229,0.141c0.741,0.566,0.884,1.627,0.317,2.369
				c-0.293,0.383-0.718,0.604-1.162,0.652c-1.205,5.822-2.774,11.598-4.712,17.289h4.803l8.868-37.18v37.18h2.279
				c1.131-3.723,2.138-7.51,3.008-11.361c1.401-6.201,2.418-12.408,3.074-18.596v-17.233h-13.492l-0.848,3.405
				C654.712,252.395,653.929,260.2,652.508,267.93z"/>
			<path d="M634.543,288.381V274.37c-1.255,4.805-2.768,9.48-4.519,14.012H634.543L634.543,288.381z"/>
			<path d="M666.931,277.198c-0.857,3.791-1.844,7.52-2.948,11.184h5.23v-23.418C668.612,269.036,667.854,273.118,666.931,277.198z"
				/>
			<path d="M634.543,271.686v-20.484l2.184,9.227c0.958-6.443,1.414-12.871,1.396-19.237h-11.941v47.19h3.133
				C631.408,283.004,633.162,277.432,634.543,271.686z"/>
		</g>
		<g>
			<path d="M709.396,259.635h-7.099c-0.068,0.727-0.136,1.451-0.213,2.178c0.108,0.047,0.217,0.096,0.319,0.162
				c1.044,0.676,1.343,2.07,0.667,3.113c-0.35,0.541-0.892,0.877-1.477,0.986c-0.065,0.504-0.136,1.008-0.203,1.512h8.005V259.635
				L709.396,259.635z"/>
			<path d="M700.378,267.586c0.071-0.52,0.144-1.037,0.212-1.559c-0.218-0.059-0.433-0.143-0.633-0.271
				c-1.044-0.674-1.341-2.068-0.667-3.113c0.417-0.645,1.104-1.002,1.815-1.023c0.07-0.662,0.132-1.322,0.194-1.984h-14.253v-10.461
				h14.964c0.109-2.662,0.167-5.325,0.167-7.983h-15.109c0.022,12.422-1.244,24.874-3.837,37.137
				c0.094,0.053,0.188,0.107,0.275,0.178c0.888,0.715,1.028,2.016,0.312,2.904c-0.369,0.459-0.896,0.713-1.44,0.758
				c-0.487,2.076-1.018,4.15-1.583,6.213h15.562c0.666-2.652,1.272-5.312,1.824-7.982h-11.136v-12.811h13.331V267.586z"/>
			<path d="M699.213,280.399c-0.548,2.668-1.152,5.33-1.813,7.982h14.514v-7.982H699.213z"/>
			<path d="M711.098,241.191h-7.956c0.004,2.658-0.049,5.321-0.152,7.983h8.108V241.191L711.098,241.191z"/>
			<path d="M681.468,282.03c-0.192-0.074-0.382-0.172-0.551-0.307c-0.889-0.717-1.027-2.016-0.312-2.902
				c0.439-0.549,1.101-0.809,1.753-0.764c2.577-12.17,3.858-24.531,3.871-36.866h-8.135v47.19h1.747
				C680.421,286.272,680.966,284.155,681.468,282.03z"/>
		</g>
		<g>
			<path d="M733.126,262.942c0.218-2.26,0.398-4.52,0.548-6.781l-17.962,23.512c-0.021,0.113-0.041,0.229-0.062,0.344v8.365h13.541
				c0.566-2.654,1.089-5.314,1.559-7.982h-4.255l5.374-7.021c0.253-1.762,0.49-3.523,0.701-5.287
				c-0.255-0.068-0.507-0.162-0.74-0.312c-1.226-0.777-1.588-2.398-0.811-3.623C731.497,263.401,732.297,262.977,733.126,262.942z"
				/>
			<path d="M746.847,281.295c0.051-0.299,0.097-0.598,0.146-0.896h-15.049c-0.467,2.666-0.986,5.328-1.55,7.982h15.145
				c0.108-0.541,0.22-1.084,0.324-1.627c-0.267-0.092-0.528-0.211-0.768-0.389c-1.249-0.924-1.515-2.684-0.59-3.934
				C745.071,281.661,745.958,281.27,746.847,281.295z"/>
			<path d="M719.215,242.188c0.121,0.039,0.244,0.081,0.36,0.141c1.201,0.613,1.676,2.082,1.062,3.282
				c-0.318,0.621-0.865,1.043-1.484,1.225c-0.02,0.779-0.046,1.559-0.074,2.34h14.948c0.094-2.662,0.145-5.325,0.146-7.984h-14.96
				C719.213,241.523,719.215,241.855,719.215,242.188z"/>
			<path d="M735.302,241.191c0.003,2.658-0.043,5.321-0.132,7.983h3.842l-4.082,5.346c-0.166,2.879-0.385,5.76-0.66,8.637
				c0.126,0.055,0.254,0.111,0.374,0.188c1.225,0.777,1.588,2.398,0.81,3.623c-0.402,0.635-1.031,1.033-1.713,1.166
				c-0.133,1.119-0.275,2.236-0.425,3.352l16.75-21.885c0.102-2.803,0.154-5.607,0.158-8.409H735.302L735.302,241.191z"/>
			<path d="M748.249,280.399c-0.064,0.404-0.129,0.809-0.196,1.211c0.132,0.068,0.262,0.139,0.385,0.229
				c1.251,0.926,1.516,2.686,0.592,3.936c-0.478,0.646-1.179,1.023-1.918,1.115c-0.095,0.498-0.197,0.994-0.295,1.492h4.981v-7.982
				H748.249L748.249,280.399z"/>
		</g>
		<g>
			<path d="M762.273,285.93c-0.285-0.094-0.566-0.217-0.824-0.4c-1.35-0.967-1.659-2.838-0.695-4.188
				c0.594-0.83,1.533-1.264,2.481-1.25c1.711-11.189,2.68-22.447,2.92-33.693v-5.208H757.2v47.19h4.623
				C761.978,287.565,762.129,286.749,762.273,285.93z"/>
			<path d="M765.635,284.834c-0.498,0.697-1.24,1.111-2.027,1.221c-0.135,0.775-0.281,1.553-0.424,2.326h2.972v-4.816
				C766.083,284.01,765.915,284.444,765.635,284.834z"/>
			<path d="M766.155,282.596v-15.037c-0.435,4.291-0.977,8.576-1.629,12.852c0.142,0.068,0.283,0.143,0.415,0.236
				C765.615,281.129,766.029,281.838,766.155,282.596z"/>
		</g>
		<g>
			<path d="M602.502,215.059c-0.778-2.703-1.673-5.354-2.673-7.951h-10.25v-10.463h5.489c-0.636-1.201-1.294-2.388-1.978-3.558
				c-0.104,0.043-0.216,0.075-0.334,0.085c-0.621,0.052-1.167-0.41-1.218-1.031c-0.031-0.383,0.133-0.735,0.407-0.962
				c-0.521-0.848-1.058-1.687-1.604-2.518h-9.718v14.344c1.774,3.279,3.327,6.688,4.641,10.204c0.049-0.002,0.098-0.004,0.149,0.002
				c0.517,0.059,0.887,0.524,0.829,1.041c-0.03,0.267-0.17,0.493-0.369,0.644c2.321,6.667,3.786,13.703,4.284,20.958h15.934
				c-0.04-0.645-0.084-1.289-0.137-1.935c-0.168-2.036-0.399-4.053-0.691-6.049h-15.686v-12.812H602.502L602.502,215.059z"/>
			<path d="M610.465,190.382c0.068-0.011,0.137-0.021,0.208-0.021c0.728,0,1.316,0.59,1.316,1.315c0,0.376-0.16,0.713-0.412,0.953
				c0.636,1.323,1.245,2.663,1.83,4.015h0.223v-7.983h-4.058C609.875,189.232,610.173,189.807,610.465,190.382z"/>
			<path d="M611.927,207.107H600.37c0.992,2.595,1.877,5.247,2.649,7.951h8.907V207.107L611.927,207.107z"/>
			<path d="M585.489,215.065c-0.092,0.019-0.188,0.027-0.287,0.017c-0.516-0.059-0.888-0.524-0.829-1.041
				c0.035-0.318,0.227-0.58,0.488-0.722c-1.212-3.252-2.631-6.412-4.237-9.466v32h9.119
				C589.24,228.672,587.788,221.691,585.489,215.065z"/>
			<path d="M606.442,233.879c0.054,0.659,0.098,1.317,0.139,1.975h7.862v-7.983h-8.684
				C606.045,229.853,606.275,231.854,606.442,233.879z"/>
			<path d="M611.069,192.925c-0.126,0.04-0.257,0.068-0.396,0.068c-0.728,0-1.315-0.59-1.315-1.316c0-0.447,0.224-0.841,0.565-1.079
				c-0.329-0.649-0.667-1.294-1.008-1.937h-17.983c0.496,0.758,0.986,1.521,1.462,2.295c0.058-0.015,0.115-0.027,0.177-0.033
				c0.62-0.051,1.166,0.41,1.217,1.032c0.026,0.321-0.086,0.62-0.284,0.843c0.739,1.263,1.45,2.547,2.133,3.847h17.13
				C612.223,195.394,611.657,194.153,611.069,192.925z"/>
		</g>
		<g>
			<path d="M620.808,196.645h9.237c-1.002-2.699-2.091-5.361-3.266-7.983h-5.972V196.645z"/>
			<path d="M635.36,211.948c0.469,1.984,0.888,3.983,1.262,5.995l12.227-15.975c-1.253-4.499-2.726-8.94-4.414-13.308h-16.972
				c1.177,2.622,2.268,5.283,3.27,7.983h10.812l-7.581,9.923c0.244,0.865,0.481,1.731,0.707,2.601
				c0.079,0.006,0.159,0.011,0.238,0.028c0.811,0.178,1.323,0.979,1.145,1.79C635.962,211.406,635.701,211.742,635.36,211.948z"/>
			<path d="M637.998,235.854c-0.118-2.676-0.32-5.338-0.604-7.983h-8.369l7.047-9.208c-0.395-2.185-0.845-4.354-1.35-6.508
				c-0.15,0.014-0.304,0.012-0.459-0.021c-0.811-0.178-1.323-0.98-1.146-1.791c0.109-0.499,0.456-0.883,0.895-1.065
				c-0.178-0.686-0.361-1.371-0.55-2.054l-12.26,16.048c0.671,4.123,1.115,8.322,1.328,12.582L637.998,235.854L637.998,235.854z"/>
			<path d="M620.716,223.907l-2.536,3.319v8.627h3.78C621.756,231.815,621.337,227.829,620.716,223.907z"/>
			<path d="M649.282,201.404l4.085-5.339v-7.404h-8.368C646.625,192.848,648.054,197.101,649.282,201.404z"/>
			<path d="M654.33,228.624v-0.754h-0.071C654.282,228.122,654.308,228.373,654.33,228.624z"/>
			<path d="M653.598,227.87h-15.526c0.28,2.645,0.48,5.307,0.597,7.983h15.44C654.011,233.187,653.841,230.524,653.598,227.87z"/>
		</g>
		<g>
			<path d="M686.153,235.854c-0.076-2.665-0.215-5.326-0.41-7.983h-15.371c0.224,2.648,0.382,5.311,0.475,7.983H686.153z"/>
			<path d="M691.331,207.107h-7.603c0.518,2.64,0.975,5.291,1.373,7.951h6.229V207.107z"/>
			<path d="M668.982,207.107v-10.463h11.652c-0.686-2.677-1.44-5.338-2.254-7.983h-16.346c1.526,4.398,2.867,8.87,4.013,13.404
				c0.099,0.006,0.197,0.015,0.296,0.037c1.012,0.229,1.646,1.233,1.418,2.245c-0.119,0.522-0.446,0.941-0.873,1.195
				c0.821,3.584,1.519,7.206,2.094,10.859v-1.344h15.355c-0.391-2.661-0.843-5.312-1.354-7.951H668.982z"/>
			<path d="M693.032,188.661h-13.951c0.819,2.646,1.575,5.308,2.269,7.983h11.683V188.661z"/>
			<path d="M669.528,227.87h-0.546v-5.326c-0.673-5.653-1.64-11.243-2.894-16.748c-0.188,0.016-0.379,0.012-0.572-0.031
				c-1.013-0.229-1.646-1.234-1.418-2.245c0.141-0.623,0.577-1.101,1.126-1.324c-1.153-4.578-2.507-9.093-4.049-13.534h-1.147
				v47.192h9.979C669.914,233.182,669.755,230.52,669.528,227.87z"/>
			<path d="M686.545,227.87c0.204,2.657,0.35,5.319,0.435,7.983h6.867v-7.983H686.545z"/>
		</g>
	</g>
</g>
</svg>
