<?xml version="1.0" encoding="utf-8"?>
<!-- Generator: Adobe Illustrator 16.0.0, SVG Export Plug-In . SVG Version: 6.00 Build 0)  -->
<!DOCTYPE svg PUBLIC "-//W3C//DTD SVG 1.1//EN" "http://www.w3.org/Graphics/SVG/1.1/DTD/svg11.dtd">
<svg version="1.1" id="Layer_1" xmlns="http://www.w3.org/2000/svg" xmlns:xlink="http://www.w3.org/1999/xlink" x="0px" y="0px"
	 width="1920px" height="1080px" viewBox="0 0 1920 1080" enable-background="new 0 0 1920 1080" xml:space="preserve">
<rect x="66.316" y="69.947" fill="none" stroke="#FFFFFF" stroke-width="2" stroke-miterlimit="10" width="115.79" height="115.79"/>
<rect x="188.684" y="69.947" opacity="0.5" fill="#2E3192" stroke="#FFFFFF" stroke-miterlimit="10" width="115.79" height="115.79"/>
<rect x="307.105" y="69.947" fill="none" stroke="#FFFFFF" stroke-miterlimit="10" width="115.79" height="115.79"/>
<rect x="429.474" y="69.947" fill="none" stroke="#FFFFFF" stroke-miterlimit="10" width="115.79" height="115.79"/>
<rect x="547.895" y="69.947" fill="none" stroke="#FFFFFF" stroke-miterlimit="10" width="115.79" height="115.79"/>
<rect x="670.263" y="69.947" fill="none" stroke="#FFFFFF" stroke-miterlimit="10" width="115.79" height="115.79"/>
<rect x="788.685" y="69.947" fill="none" stroke="#FFFFFF" stroke-miterlimit="10" width="115.79" height="115.79"/>
<rect x="911.053" y="69.947" fill="none" stroke="#FFFFFF" stroke-miterlimit="10" width="115.789" height="115.79"/>
<g>
	<path fill="none" stroke="#FFFFFF" stroke-width="2" d="M100.941,84.393h9.396v48.708c0,19.333-9.504,25.272-22.032,25.272
		c-3.456,0-7.668-0.756-10.044-1.728l1.404-7.668c1.944,0.756,4.752,1.404,7.884,1.404c8.424,0,13.392-3.78,13.392-18.036V84.393z"
		/>
	<path fill="none" stroke="#FFFFFF" stroke-width="2" d="M124.7,145.738c4.212,2.592,10.368,4.752,16.848,4.752
		c9.612,0,15.229-5.076,15.229-12.42c0-6.804-3.888-10.692-13.716-14.472c-11.88-4.212-19.225-10.368-19.225-20.628
		c0-11.34,9.396-19.764,23.544-19.764c7.452,0,12.853,1.728,16.092,3.564l-2.592,7.668c-2.376-1.296-7.236-3.456-13.824-3.456
		c-9.936,0-13.716,5.94-13.716,10.908c0,6.804,4.428,10.152,14.472,14.04c12.312,4.752,18.576,10.692,18.576,21.384
		c0,11.232-8.316,20.953-25.488,20.953c-7.02,0-14.688-2.052-18.576-4.644L124.7,145.738z"/>
</g>
</svg>
